<svg xmlns="http://www.w3.org/2000/svg" viewBox="0 0 1200 700" role="img" aria-label="ECUBE appliance front view with three populated PCI USB controller cards for twelve ports">
  <defs>
    <linearGradient id="bezel" x1="0" x2="0" y1="0" y2="1">
      <stop offset="0%" stop-color="#2a2f38" />
      <stop offset="100%" stop-color="#11151b" />
    </linearGradient>
    <linearGradient id="panel" x1="0" x2="1" y1="0" y2="1">
      <stop offset="0%" stop-color="#d8dde6" />
      <stop offset="100%" stop-color="#a3adbb" />
    </linearGradient>
    <pattern id="mesh" width="16" height="16" patternUnits="userSpaceOnUse">
      <circle cx="5" cy="5" r="2.1" fill="#717b8b" opacity="0.5" />
    </pattern>
    <filter id="drop" x="-10%" y="-20%" width="120%" height="160%">
      <feDropShadow dx="0" dy="18" stdDeviation="20" flood-color="#0f172a" flood-opacity="0.16" />
    </filter>
  </defs>
  <rect width="1200" height="700" fill="#f8fafc" />
  <ellipse cx="600" cy="585" rx="390" ry="44" fill="#94a3b8" opacity="0.14" />
  <g filter="url(#drop)">
    <rect x="90" y="145" width="1020" height="340" rx="18" fill="url(#bezel)" stroke="#0b0f14" stroke-width="3" />
    <rect x="72" y="165" width="36" height="300" rx="14" fill="#20242c" />
    <rect x="1092" y="165" width="36" height="300" rx="14" fill="#20242c" />
    <rect x="128" y="180" width="345" height="110" rx="8" fill="url(#mesh)" opacity="0.95" />
    <rect x="128" y="302" width="345" height="95" rx="8" fill="#0b1016" stroke="#2e3642" />
    <rect x="155" y="330" width="110" height="28" rx="5" fill="#1f2937" stroke="#4b5563" />
    <circle cx="300" cy="345" r="8" fill="#84cc16" />
    <circle cx="330" cy="345" r="8" fill="#22c55e" />
    <circle cx="360" cy="345" r="8" fill="#60a5fa" />
    <rect x="505" y="180" width="350" height="110" rx="8" fill="url(#mesh)" opacity="0.95" />
    <rect x="505" y="302" width="350" height="120" rx="8" fill="#0f1319" stroke="#2f3845" />
    <rect x="545" y="322" width="170" height="78" rx="6" fill="url(#panel)" stroke="#7c8797" />
    <circle cx="565" cy="342" r="10" fill="#98a2b3" />
    <rect x="600" y="334" width="44" height="12" rx="2" fill="#475569" />
    <rect x="655" y="330" width="24" height="18" rx="2" fill="#475569" />
    <rect x="655" y="354" width="24" height="18" rx="2" fill="#475569" />
    <rect x="688" y="330" width="24" height="18" rx="2" fill="#475569" />
    <rect x="688" y="354" width="24" height="18" rx="2" fill="#475569" />
    <g>
      <rect x="892" y="188" width="22" height="226" rx="3" fill="#d1d5db" />
      <rect x="896" y="240" width="6" height="24" rx="2" fill="#2563eb" />
      <rect x="904" y="240" width="6" height="24" rx="2" fill="#2563eb" />
      <rect x="896" y="272" width="6" height="24" rx="2" fill="#2563eb" />
      <rect x="904" y="272" width="6" height="24" rx="2" fill="#2563eb" />
    </g>
    <g>
      <rect x="925" y="188" width="22" height="226" rx="3" fill="#d1d5db" />
      <rect x="929" y="240" width="6" height="24" rx="2" fill="#2563eb" />
      <rect x="937" y="240" width="6" height="24" rx="2" fill="#2563eb" />
      <rect x="929" y="272" width="6" height="24" rx="2" fill="#2563eb" />
      <rect x="937" y="272" width="6" height="24" rx="2" fill="#2563eb" />
    </g>
    <g>
      <rect x="958" y="188" width="22" height="226" rx="3" fill="#d1d5db" />
      <rect x="962" y="240" width="6" height="24" rx="2" fill="#2563eb" />
      <rect x="970" y="240" width="6" height="24" rx="2" fill="#2563eb" />
      <rect x="962" y="272" width="6" height="24" rx="2" fill="#2563eb" />
      <rect x="970" y="272" width="6" height="24" rx="2" fill="#2563eb" />
    </g>
    <rect x="991" y="188" width="22" height="226" rx="3" fill="#d1d5db" />
  </g>
</svg>
